<mxfile host="www.draw.io" modified="2020-02-02T03:39:40.240Z" agent="Mozilla/5.0 (Windows NT 10.0; Win64; x64) AppleWebKit/537.36 (KHTML, like Gecko) Chrome/79.0.3945.130 Safari/537.36" etag="j1jr1XqnK5nZcWfL63fg" version="12.6.2" type="github">
  <diagram id="PG-wzyMNiOOBJHvKIpx8" name="Page-1">
    <mxGraphModel dx="1422" dy="804" grid="1" gridSize="10" guides="1" tooltips="1" connect="1" arrows="1" fold="1" page="1" pageScale="1" pageWidth="827" pageHeight="1169" math="0" shadow="0">
      <root>
        <mxCell id="0"/>
        <mxCell id="1" parent="0"/>
        <mxCell id="nYhgYzYihR5nlsXMgj1n-14" value="SPI" style="edgeStyle=orthogonalEdgeStyle;rounded=0;orthogonalLoop=1;jettySize=auto;html=1;exitX=0.5;exitY=0;exitDx=0;exitDy=0;entryX=0.5;entryY=1;entryDx=0;entryDy=0;startArrow=classic;startFill=1;" edge="1" parent="1" source="nYhgYzYihR5nlsXMgj1n-1" target="nYhgYzYihR5nlsXMgj1n-9">
          <mxGeometry relative="1" as="geometry"/>
        </mxCell>
        <mxCell id="nYhgYzYihR5nlsXMgj1n-27" style="edgeStyle=orthogonalEdgeStyle;rounded=0;orthogonalLoop=1;jettySize=auto;html=1;exitX=0.5;exitY=1;exitDx=0;exitDy=0;entryX=0.5;entryY=0;entryDx=0;entryDy=0;startArrow=classic;startFill=1;" edge="1" parent="1" source="nYhgYzYihR5nlsXMgj1n-1" target="nYhgYzYihR5nlsXMgj1n-26">
          <mxGeometry relative="1" as="geometry"/>
        </mxCell>
        <mxCell id="nYhgYzYihR5nlsXMgj1n-1" value="Microcontroller&lt;br&gt;(ATmega1284P)" style="rounded=0;whiteSpace=wrap;html=1;fillColor=#dae8fc;strokeColor=#6c8ebf;" vertex="1" parent="1">
          <mxGeometry x="343" y="560" width="120" height="60" as="geometry"/>
        </mxCell>
        <mxCell id="nYhgYzYihR5nlsXMgj1n-5" style="edgeStyle=orthogonalEdgeStyle;rounded=0;orthogonalLoop=1;jettySize=auto;html=1;exitX=1;exitY=0.5;exitDx=0;exitDy=0;entryX=0.5;entryY=1;entryDx=0;entryDy=0;" edge="1" parent="1" source="nYhgYzYihR5nlsXMgj1n-2" target="nYhgYzYihR5nlsXMgj1n-4">
          <mxGeometry relative="1" as="geometry"/>
        </mxCell>
        <mxCell id="nYhgYzYihR5nlsXMgj1n-6" style="edgeStyle=orthogonalEdgeStyle;rounded=0;orthogonalLoop=1;jettySize=auto;html=1;exitX=0.5;exitY=0;exitDx=0;exitDy=0;entryX=0.5;entryY=1;entryDx=0;entryDy=0;" edge="1" parent="1" source="nYhgYzYihR5nlsXMgj1n-2" target="nYhgYzYihR5nlsXMgj1n-3">
          <mxGeometry relative="1" as="geometry"/>
        </mxCell>
        <mxCell id="nYhgYzYihR5nlsXMgj1n-2" value="Hall Effect Current Sensor" style="rounded=0;whiteSpace=wrap;html=1;fillColor=#ffe6cc;strokeColor=#d79b00;" vertex="1" parent="1">
          <mxGeometry x="510" y="770" width="120" height="60" as="geometry"/>
        </mxCell>
        <mxCell id="nYhgYzYihR5nlsXMgj1n-7" style="edgeStyle=orthogonalEdgeStyle;rounded=0;orthogonalLoop=1;jettySize=auto;html=1;exitX=0.5;exitY=0;exitDx=0;exitDy=0;entryX=1;entryY=0.5;entryDx=0;entryDy=0;" edge="1" parent="1" source="nYhgYzYihR5nlsXMgj1n-3" target="nYhgYzYihR5nlsXMgj1n-1">
          <mxGeometry relative="1" as="geometry"/>
        </mxCell>
        <mxCell id="nYhgYzYihR5nlsXMgj1n-8" value="ADC" style="text;html=1;align=center;verticalAlign=middle;resizable=0;points=[];labelBackgroundColor=#ffffff;" vertex="1" connectable="0" parent="nYhgYzYihR5nlsXMgj1n-7">
          <mxGeometry x="-0.3631" y="33" relative="1" as="geometry">
            <mxPoint x="-33" y="-35" as="offset"/>
          </mxGeometry>
        </mxCell>
        <mxCell id="nYhgYzYihR5nlsXMgj1n-3" value="Signal Amplification" style="rounded=0;whiteSpace=wrap;html=1;fillColor=#ffe6cc;strokeColor=#d79b00;" vertex="1" parent="1">
          <mxGeometry x="510" y="670" width="120" height="60" as="geometry"/>
        </mxCell>
        <mxCell id="nYhgYzYihR5nlsXMgj1n-13" style="edgeStyle=orthogonalEdgeStyle;rounded=0;orthogonalLoop=1;jettySize=auto;html=1;exitX=0.5;exitY=0;exitDx=0;exitDy=0;entryX=0.5;entryY=1;entryDx=0;entryDy=0;dashed=1;" edge="1" parent="1" source="nYhgYzYihR5nlsXMgj1n-4" target="nYhgYzYihR5nlsXMgj1n-12">
          <mxGeometry relative="1" as="geometry"/>
        </mxCell>
        <mxCell id="nYhgYzYihR5nlsXMgj1n-4" value="Shutdown Board" style="rounded=0;whiteSpace=wrap;html=1;dashed=1;" vertex="1" parent="1">
          <mxGeometry x="590" y="360" width="120" height="60" as="geometry"/>
        </mxCell>
        <mxCell id="nYhgYzYihR5nlsXMgj1n-21" style="edgeStyle=orthogonalEdgeStyle;rounded=0;orthogonalLoop=1;jettySize=auto;html=1;exitX=0.5;exitY=0;exitDx=0;exitDy=0;entryX=0.5;entryY=1;entryDx=0;entryDy=0;startArrow=none;startFill=0;" edge="1" parent="1" source="nYhgYzYihR5nlsXMgj1n-9" target="nYhgYzYihR5nlsXMgj1n-20">
          <mxGeometry relative="1" as="geometry"/>
        </mxCell>
        <mxCell id="nYhgYzYihR5nlsXMgj1n-9" value="CANBUS Communication&lt;br&gt;(MCP2517)" style="rounded=0;whiteSpace=wrap;html=1;fillColor=#dae8fc;strokeColor=#6c8ebf;" vertex="1" parent="1">
          <mxGeometry x="343" y="450" width="120" height="60" as="geometry"/>
        </mxCell>
        <mxCell id="nYhgYzYihR5nlsXMgj1n-15" style="edgeStyle=orthogonalEdgeStyle;rounded=0;orthogonalLoop=1;jettySize=auto;html=1;exitX=0.5;exitY=0;exitDx=0;exitDy=0;entryX=0.5;entryY=1;entryDx=0;entryDy=0;startArrow=none;startFill=0;" edge="1" parent="1" source="nYhgYzYihR5nlsXMgj1n-10" target="nYhgYzYihR5nlsXMgj1n-11">
          <mxGeometry relative="1" as="geometry"/>
        </mxCell>
        <mxCell id="nYhgYzYihR5nlsXMgj1n-10" value="Tractive System HV Measurement" style="rounded=0;whiteSpace=wrap;html=1;fillColor=#ffe6cc;strokeColor=#d79b00;" vertex="1" parent="1">
          <mxGeometry x="160" y="560" width="120" height="60" as="geometry"/>
        </mxCell>
        <mxCell id="nYhgYzYihR5nlsXMgj1n-17" style="edgeStyle=orthogonalEdgeStyle;rounded=0;orthogonalLoop=1;jettySize=auto;html=1;exitX=0.5;exitY=0;exitDx=0;exitDy=0;entryX=0.5;entryY=1;entryDx=0;entryDy=0;startArrow=none;startFill=0;" edge="1" parent="1" source="nYhgYzYihR5nlsXMgj1n-11" target="nYhgYzYihR5nlsXMgj1n-16">
          <mxGeometry relative="1" as="geometry"/>
        </mxCell>
        <mxCell id="nYhgYzYihR5nlsXMgj1n-11" value="TSAL Threshold Circuit" style="rounded=0;whiteSpace=wrap;html=1;fillColor=#ffe6cc;strokeColor=#d79b00;" vertex="1" parent="1">
          <mxGeometry x="160" y="450" width="120" height="60" as="geometry"/>
        </mxCell>
        <mxCell id="nYhgYzYihR5nlsXMgj1n-12" value="BSPD" style="rounded=0;whiteSpace=wrap;html=1;dashed=1;" vertex="1" parent="1">
          <mxGeometry x="590" y="280" width="120" height="60" as="geometry"/>
        </mxCell>
        <mxCell id="nYhgYzYihR5nlsXMgj1n-16" value="Tractive System Active Light&lt;br&gt;(TSAL)" style="rounded=0;whiteSpace=wrap;html=1;dashed=1;" vertex="1" parent="1">
          <mxGeometry x="160" y="360" width="120" height="60" as="geometry"/>
        </mxCell>
        <mxCell id="nYhgYzYihR5nlsXMgj1n-20" value="Chassis Controller&lt;br&gt;(VCU)" style="rounded=1;whiteSpace=wrap;html=1;dashed=1;arcSize=0;" vertex="1" parent="1">
          <mxGeometry x="343" y="360" width="120" height="60" as="geometry"/>
        </mxCell>
        <mxCell id="nYhgYzYihR5nlsXMgj1n-31" style="edgeStyle=orthogonalEdgeStyle;rounded=0;orthogonalLoop=1;jettySize=auto;html=1;exitX=0.5;exitY=0;exitDx=0;exitDy=0;entryX=0.5;entryY=1;entryDx=0;entryDy=0;startArrow=classic;startFill=1;endArrow=none;endFill=0;" edge="1" parent="1" source="nYhgYzYihR5nlsXMgj1n-23" target="nYhgYzYihR5nlsXMgj1n-10">
          <mxGeometry relative="1" as="geometry"/>
        </mxCell>
        <mxCell id="nYhgYzYihR5nlsXMgj1n-23" value="IMD" style="rounded=0;whiteSpace=wrap;html=1;fillColor=#d5e8d4;strokeColor=#82b366;" vertex="1" parent="1">
          <mxGeometry x="160" y="670" width="120" height="60" as="geometry"/>
        </mxCell>
        <mxCell id="nYhgYzYihR5nlsXMgj1n-28" value="UART" style="edgeStyle=orthogonalEdgeStyle;rounded=0;orthogonalLoop=1;jettySize=auto;html=1;startArrow=classic;startFill=1;" edge="1" parent="1" source="nYhgYzYihR5nlsXMgj1n-26" target="nYhgYzYihR5nlsXMgj1n-1">
          <mxGeometry relative="1" as="geometry"/>
        </mxCell>
        <mxCell id="nYhgYzYihR5nlsXMgj1n-26" value="Debugging" style="rounded=0;whiteSpace=wrap;html=1;fillColor=#ffe6cc;strokeColor=#d79b00;" vertex="1" parent="1">
          <mxGeometry x="343" y="670" width="120" height="60" as="geometry"/>
        </mxCell>
      </root>
    </mxGraphModel>
  </diagram>
</mxfile>
